# Blender v2.75 (sub 0) OBJ File: 'Axis.blend'
# www.blender.org
mtllib Axis.mtl
o X_Axis_Cone.002
v 1.973667 -0.000000 -0.029877
v 1.973667 -0.005829 -0.029303
v 1.973667 -0.011434 -0.027603
v 1.973667 -0.016599 -0.024842
v 1.973667 -0.021126 -0.021126
v 1.973667 -0.024842 -0.016599
v 1.973667 -0.027603 -0.011434
v 1.973667 -0.029303 -0.005829
v 1.973667 -0.029877 -0.000000
v 2.073667 0.000000 -0.000000
v 1.973667 -0.029303 0.005829
v 1.973667 -0.027603 0.011434
v 1.973667 -0.024842 0.016599
v 1.973667 -0.021126 0.021126
v 1.973667 -0.016599 0.024842
v 1.973667 -0.011434 0.027603
v 1.973667 -0.005829 0.029303
v 1.973667 0.000000 0.029877
v 1.973667 0.005829 0.029303
v 1.973667 0.011434 0.027603
v 1.973667 0.016599 0.024842
v 1.973667 0.021126 0.021126
v 1.973667 0.024842 0.016599
v 1.973667 0.027603 0.011434
v 1.973667 0.029303 0.005829
v 1.973667 0.029877 -0.000000
v 1.973667 0.029303 -0.005829
v 1.973667 0.027603 -0.011434
v 1.973667 0.024842 -0.016599
v 1.973667 0.021126 -0.021126
v 1.973667 0.016599 -0.024842
v 1.973667 0.011434 -0.027603
v 1.973667 0.005829 -0.029303
v 0.000000 -0.010000 0.010000
v 2.000000 -0.010000 0.010000
v 0.000000 0.010000 0.010000
v 2.000000 0.010000 0.010000
v 0.000000 -0.010000 -0.010000
v 2.000000 -0.010000 -0.010000
v 0.000000 0.010000 -0.010000
v 2.000000 0.010000 -0.010000
vt 0.000000 0.000000
vt 1.000000 0.000000
vt 1.000000 1.000000
vt 0.500000 1.000000
vt 0.597545 0.990393
vt 0.691342 0.961940
vt 0.777785 0.915735
vt 0.853553 0.853553
vt 0.915735 0.777785
vt 0.961940 0.691342
vt 0.990393 0.597545
vt 1.000000 0.500000
vt 0.990393 0.402455
vt 0.961940 0.308658
vt 0.915735 0.222215
vt 0.853553 0.146447
vt 0.777785 0.084265
vt 0.691342 0.038060
vt 0.597545 0.009607
vt 0.500000 0.000000
vt 0.402455 0.009607
vt 0.308658 0.038060
vt 0.222215 0.084265
vt 0.146446 0.146447
vt 0.084265 0.222215
vt 0.038060 0.308659
vt 0.009607 0.402455
vt 0.000000 0.500000
vt 0.009607 0.597546
vt 0.038060 0.691342
vt 0.084266 0.777786
vt 0.146447 0.853554
vt 0.222215 0.915735
vt 0.308659 0.961940
vt 0.402456 0.990393
vt 0.000000 1.000000
vn 0.285000 0.278200 -0.917300
vn 0.285000 -0.093900 -0.953900
vn 0.285000 0.451800 -0.845300
vn 0.285000 0.608100 -0.740900
vn 0.285000 0.740900 -0.608100
vn 0.285000 0.845300 -0.451800
vn 0.285000 0.917300 -0.278200
vn 0.285000 0.953900 -0.094000
vn 0.285000 0.953900 0.094000
vn 0.285000 0.917300 0.278200
vn 0.285000 0.845300 0.451800
vn 0.285000 0.741000 0.608100
vn 0.285000 0.608100 0.741000
vn 0.285000 0.451900 0.845300
vn 0.285000 0.278200 0.917300
vn 0.285000 0.093900 0.953900
vn 0.285000 -0.093900 0.953900
vn 0.285000 -0.278200 0.917300
vn 0.285000 -0.451900 0.845300
vn 0.285000 -0.608100 0.741000
vn 0.285000 -0.741000 0.608100
vn 0.285000 -0.845300 0.451800
vn 0.285000 -0.917300 0.278200
vn 0.285000 -0.953900 0.094000
vn 0.285000 -0.953900 -0.094000
vn 0.285000 -0.917300 -0.278200
vn 0.285000 -0.845300 -0.451800
vn 0.285000 -0.741000 -0.608100
vn 0.285000 -0.608100 -0.741000
vn 0.285000 -0.451800 -0.845300
vn 0.285000 0.094000 -0.953900
vn 0.285000 -0.278200 -0.917300
vn -1.000000 -0.000000 0.000000
vn 0.000000 0.000000 1.000000
vn 0.000000 1.000000 0.000000
vn -0.000000 0.000000 -1.000000
vn -0.000000 -1.000000 0.000000
vn 1.000000 0.000000 0.000000
usemtl Material_Red
s off
f 32/1/1 10/2/1 33/3/1
f 1/1/2 10/2/2 2/3/2
f 31/1/3 10/2/3 32/3/3
f 30/1/4 10/2/4 31/3/4
f 29/1/5 10/2/5 30/3/5
f 28/1/6 10/2/6 29/3/6
f 27/1/7 10/2/7 28/3/7
f 26/1/8 10/2/8 27/3/8
f 25/1/9 10/2/9 26/3/9
f 24/1/10 10/2/10 25/3/10
f 23/1/11 10/2/11 24/3/11
f 22/1/12 10/2/12 23/3/12
f 21/1/13 10/2/13 22/3/13
f 20/1/14 10/2/14 21/3/14
f 19/1/15 10/2/15 20/3/15
f 18/1/16 10/2/16 19/3/16
f 17/1/17 10/2/17 18/3/17
f 16/1/18 10/2/18 17/3/18
f 15/1/19 10/2/19 16/3/19
f 14/1/20 10/2/20 15/3/20
f 13/1/21 10/2/21 14/3/21
f 12/1/22 10/2/22 13/3/22
f 11/1/23 10/2/23 12/3/23
f 9/1/24 10/2/24 11/3/24
f 8/1/25 10/2/25 9/3/25
f 7/1/26 10/2/26 8/3/26
f 6/1/27 10/2/27 7/3/27
f 5/1/28 10/2/28 6/3/28
f 4/1/29 10/2/29 5/3/29
f 3/1/30 10/2/30 4/3/30
f 33/1/31 10/2/31 1/3/31
f 2/1/32 10/2/32 3/3/32
f 1/4/33 2/5/33 3/6/33 4/7/33 5/8/33 6/9/33 7/10/33 8/11/33 9/12/33 11/13/33 12/14/33 13/15/33 14/16/33 15/17/33 16/18/33 17/19/33 18/20/33 19/21/33 20/22/33 21/23/33 22/24/33 23/25/33 24/26/33 25/27/33 26/28/33 27/29/33 28/30/33 29/31/33 30/32/33 31/33/33 32/34/33 33/35/33
f 35/1/34 37/2/34 36/3/34 34/36/34
f 37/1/35 41/2/35 40/3/35 36/36/35
f 41/1/36 39/2/36 38/3/36 40/36/36
f 39/1/37 35/2/37 34/3/37 38/36/37
f 34/1/33 36/2/33 40/3/33 38/36/33
f 39/1/38 41/2/38 37/3/38 35/36/38
o Y_Axis_Cone.001
v -0.029877 1.991237 0.000000
v -0.029303 1.991237 -0.005829
v -0.027603 1.991237 -0.011433
v -0.024842 1.991237 -0.016599
v -0.021126 1.991237 -0.021126
v -0.016599 1.991237 -0.024842
v -0.011434 1.991237 -0.027603
v -0.005829 1.991237 -0.029303
v -0.000000 1.991237 -0.029877
v -0.000000 2.091237 0.000000
v 0.005829 1.991237 -0.029303
v 0.011434 1.991237 -0.027603
v 0.016599 1.991237 -0.024842
v 0.021126 1.991237 -0.021126
v 0.024842 1.991237 -0.016599
v 0.027603 1.991237 -0.011433
v 0.029303 1.991237 -0.005829
v 0.029877 1.991237 0.000000
v 0.029303 1.991237 0.005829
v 0.027603 1.991237 0.011434
v 0.024842 1.991237 0.016599
v 0.021126 1.991237 0.021127
v 0.016599 1.991237 0.024842
v 0.011434 1.991237 0.027603
v 0.005829 1.991237 0.029303
v -0.000000 1.991237 0.029877
v -0.005829 1.991237 0.029303
v -0.011434 1.991237 0.027603
v -0.016599 1.991237 0.024842
v -0.021126 1.991237 0.021127
v -0.024842 1.991237 0.016599
v -0.027603 1.991237 0.011434
v -0.029303 1.991237 0.005829
v -0.010000 2.000000 -0.010000
v -0.010000 -0.000000 -0.010000
v -0.010000 2.000000 0.010000
v -0.010000 -0.000000 0.010000
v 0.010000 2.000000 -0.010000
v 0.010000 -0.000000 -0.010000
v 0.010000 2.000000 0.010000
v 0.010000 -0.000000 0.010000
vt 0.000000 0.000000
vt 0.211829 0.056985
vt 0.285043 0.019301
vt 0.362767 0.000090
vt 0.442012 0.000090
vt 0.519736 0.019301
vt 0.592949 0.056986
vt 0.658840 0.111695
vt 0.714875 0.181327
vt 0.758902 0.263205
vt 0.789227 0.354183
vt 0.804687 0.450764
vt 0.804687 0.549239
vt 0.789227 0.645821
vt 0.758900 0.736798
vt 0.714873 0.818676
vt 0.658838 0.888307
vt 0.592948 0.943015
vt 0.519734 0.980699
vt 0.442012 0.999910
vt 0.362766 0.999910
vt 0.285043 0.980699
vt 0.211829 0.943015
vt 0.145938 0.888305
vt 0.089903 0.818674
vt 0.045876 0.736796
vt 0.015550 0.645818
vt 0.000090 0.549236
vt 0.000090 0.450762
vt 0.015550 0.354180
vt 0.045877 0.263202
vt 0.089904 0.181324
vt 0.145939 0.111693
vt 1.000000 0.000000
vt 1.000000 1.000000
vt 0.000000 1.000000
vn -0.917300 0.285000 0.278200
vn -0.953900 0.285000 -0.093900
vn -0.845300 0.285000 0.451800
vn -0.740900 0.285000 0.608100
vn -0.608100 0.285000 0.740900
vn -0.451800 0.285000 0.845300
vn -0.278200 0.285000 0.917300
vn -0.094000 0.285000 0.953900
vn 0.094000 0.285000 0.953900
vn 0.278200 0.285000 0.917300
vn 0.451800 0.285000 0.845300
vn 0.608100 0.285000 0.741000
vn 0.741000 0.285000 0.608100
vn 0.845300 0.285000 0.451800
vn 0.917300 0.285000 0.278200
vn 0.953900 0.285000 0.093900
vn 0.953900 0.285000 -0.093900
vn 0.917300 0.285000 -0.278200
vn 0.845300 0.285000 -0.451800
vn 0.741000 0.285000 -0.608100
vn 0.608100 0.285000 -0.741000
vn 0.451800 0.285000 -0.845300
vn 0.278200 0.285000 -0.917300
vn 0.094000 0.285000 -0.953900
vn -0.094000 0.285000 -0.953900
vn -0.278200 0.285000 -0.917300
vn -0.451800 0.285000 -0.845300
vn -0.608100 0.285000 -0.741000
vn -0.741000 0.285000 -0.608100
vn -0.845300 0.285000 -0.451800
vn -0.953900 0.285000 0.094000
vn -0.917300 0.285000 -0.278200
vn 0.000000 -1.000000 0.000000
vn -1.000000 0.000000 0.000000
vn 0.000000 -0.000000 1.000000
vn 1.000000 0.000000 0.000000
vn 0.000000 0.000000 -1.000000
vn 0.000000 1.000000 0.000000
usemtl Material_Green
s off
f 73/37/39 51/37/39 74/37/39
f 42/37/40 51/37/40 43/37/40
f 72/37/41 51/37/41 73/37/41
f 71/37/42 51/37/42 72/37/42
f 70/37/43 51/37/43 71/37/43
f 69/37/44 51/37/44 70/37/44
f 68/37/45 51/37/45 69/37/45
f 67/37/46 51/37/46 68/37/46
f 66/37/47 51/37/47 67/37/47
f 65/37/48 51/37/48 66/37/48
f 64/37/49 51/37/49 65/37/49
f 63/37/50 51/37/50 64/37/50
f 62/37/51 51/37/51 63/37/51
f 61/37/52 51/37/52 62/37/52
f 60/37/53 51/37/53 61/37/53
f 59/37/54 51/37/54 60/37/54
f 58/37/55 51/37/55 59/37/55
f 57/37/56 51/37/56 58/37/56
f 56/37/57 51/37/57 57/37/57
f 55/37/58 51/37/58 56/37/58
f 54/37/59 51/37/59 55/37/59
f 53/37/60 51/37/60 54/37/60
f 52/37/61 51/37/61 53/37/61
f 50/37/62 51/37/62 52/37/62
f 49/37/63 51/37/63 50/37/63
f 48/37/64 51/37/64 49/37/64
f 47/37/65 51/37/65 48/37/65
f 46/37/66 51/37/66 47/37/66
f 45/37/67 51/37/67 46/37/67
f 44/37/68 51/37/68 45/37/68
f 74/37/69 51/37/69 42/37/69
f 43/37/70 51/37/70 44/37/70
f 42/38/71 43/39/71 44/40/71 45/41/71 46/42/71 47/43/71 48/44/71 49/45/71 50/46/71 52/47/71 53/48/71 54/49/71 55/50/71 56/51/71 57/52/71 58/53/71 59/54/71 60/55/71 61/56/71 62/57/71 63/58/71 64/59/71 65/60/71 66/61/71 67/62/71 68/63/71 69/64/71 70/65/71 71/66/71 72/67/71 73/68/71 74/69/71
f 76/37/72 78/70/72 77/71/72 75/72/72
f 78/37/73 82/70/73 81/71/73 77/72/73
f 82/37/74 80/70/74 79/71/74 81/72/74
f 80/37/75 76/70/75 75/71/75 79/72/75
f 75/37/76 77/70/76 81/71/76 79/72/76
f 80/37/71 82/70/71 78/71/71 76/72/71
o Z_Axis_Cube
v 0.000000 0.029877 1.954988
v 0.005829 0.029303 1.954988
v 0.011434 0.027603 1.954988
v 0.016599 0.024842 1.954988
v 0.021126 0.021126 1.954988
v 0.024842 0.016599 1.954988
v 0.027603 0.011433 1.954988
v 0.029303 0.005829 1.954988
v 0.029877 -0.000000 1.954988
v 0.000000 -0.000000 2.054988
v 0.029303 -0.005829 1.954988
v 0.027603 -0.011434 1.954988
v 0.024842 -0.016599 1.954988
v 0.021126 -0.021127 1.954988
v 0.016599 -0.024842 1.954988
v 0.011434 -0.027603 1.954988
v 0.005829 -0.029303 1.954988
v -0.000000 -0.029877 1.954988
v -0.005829 -0.029303 1.954988
v -0.011434 -0.027603 1.954988
v -0.016599 -0.024842 1.954988
v -0.021126 -0.021127 1.954988
v -0.024842 -0.016599 1.954988
v -0.027603 -0.011434 1.954988
v -0.029303 -0.005829 1.954988
v -0.029877 -0.000000 1.954988
v -0.029303 0.005829 1.954988
v -0.027603 0.011434 1.954988
v -0.024842 0.016599 1.954988
v -0.021126 0.021126 1.954988
v -0.016599 0.024842 1.954988
v -0.011434 0.027603 1.954988
v -0.005829 0.029303 1.954988
v -0.010000 -0.010000 -0.000000
v -0.010000 -0.010000 2.000000
v -0.010000 0.010000 0.000000
v -0.010000 0.010000 2.000000
v 0.010000 -0.010000 -0.000000
v 0.010000 -0.010000 2.000000
v 0.010000 0.010000 0.000000
v 0.010000 0.010000 2.000000
vt 0.000000 0.000000
vt 0.211830 0.056985
vt 0.285044 0.019301
vt 0.362767 0.000090
vt 0.442013 0.000090
vt 0.519737 0.019302
vt 0.592950 0.056986
vt 0.658841 0.111697
vt 0.714875 0.181327
vt 0.758901 0.263204
vt 0.789227 0.354182
vt 0.804687 0.450763
vt 0.804687 0.549236
vt 0.789227 0.645818
vt 0.758901 0.736796
vt 0.714875 0.818674
vt 0.658839 0.888306
vt 0.592948 0.943015
vt 0.519734 0.980699
vt 0.442011 0.999910
vt 0.362765 0.999910
vt 0.285042 0.980699
vt 0.211828 0.943014
vt 0.145937 0.888305
vt 0.089902 0.818673
vt 0.045876 0.736795
vt 0.015550 0.645817
vt 0.000090 0.549235
vt 0.000090 0.450761
vt 0.015550 0.354180
vt 0.045877 0.263202
vt 0.089904 0.181324
vt 0.145939 0.111693
vt 1.000000 0.000000
vt 1.000000 1.000000
vt 0.000000 1.000000
vn -0.278200 0.917300 0.285000
vn 0.094000 0.953900 0.285000
vn -0.451900 0.845300 0.285000
vn -0.608100 0.741000 0.285000
vn -0.740900 0.608100 0.285000
vn -0.845300 0.451800 0.285000
vn -0.917300 0.278200 0.285000
vn -0.953900 0.094000 0.285000
vn -0.953900 -0.094000 0.285000
vn -0.917300 -0.278200 0.285000
vn -0.845300 -0.451800 0.285000
vn -0.741000 -0.608100 0.285000
vn -0.608100 -0.741000 0.285000
vn -0.451800 -0.845300 0.285000
vn -0.278300 -0.917300 0.285000
vn -0.093900 -0.953900 0.285000
vn 0.093900 -0.953900 0.285000
vn 0.278300 -0.917300 0.285000
vn 0.451800 -0.845300 0.285000
vn 0.608100 -0.741000 0.285000
vn 0.741000 -0.608100 0.285000
vn 0.845300 -0.451800 0.285000
vn 0.917300 -0.278200 0.285000
vn 0.953900 -0.094000 0.285000
vn 0.953900 0.094000 0.285000
vn 0.917300 0.278200 0.285000
vn 0.845300 0.451800 0.285000
vn 0.741000 0.608100 0.285000
vn 0.608100 0.741000 0.285000
vn 0.451800 0.845300 0.285000
vn -0.094000 0.953900 0.285000
vn 0.278300 0.917300 0.285000
vn 0.000000 0.000000 -1.000000
vn -1.000000 -0.000000 0.000000
vn 0.000000 1.000000 0.000000
vn 1.000000 -0.000000 0.000000
vn 0.000000 -1.000000 -0.000000
vn 0.000000 0.000000 1.000000
usemtl Material_Blue
s off
f 114/73/77 92/73/77 115/73/77
f 83/73/78 92/73/78 84/73/78
f 113/73/79 92/73/79 114/73/79
f 112/73/80 92/73/80 113/73/80
f 111/73/81 92/73/81 112/73/81
f 110/73/82 92/73/82 111/73/82
f 109/73/83 92/73/83 110/73/83
f 108/73/84 92/73/84 109/73/84
f 107/73/85 92/73/85 108/73/85
f 106/73/86 92/73/86 107/73/86
f 105/73/87 92/73/87 106/73/87
f 104/73/88 92/73/88 105/73/88
f 103/73/89 92/73/89 104/73/89
f 102/73/90 92/73/90 103/73/90
f 101/73/91 92/73/91 102/73/91
f 100/73/92 92/73/92 101/73/92
f 99/73/93 92/73/93 100/73/93
f 98/73/94 92/73/94 99/73/94
f 97/73/95 92/73/95 98/73/95
f 96/73/96 92/73/96 97/73/96
f 95/73/97 92/73/97 96/73/97
f 94/73/98 92/73/98 95/73/98
f 93/73/99 92/73/99 94/73/99
f 91/73/100 92/73/100 93/73/100
f 90/73/101 92/73/101 91/73/101
f 89/73/102 92/73/102 90/73/102
f 88/73/103 92/73/103 89/73/103
f 87/73/104 92/73/104 88/73/104
f 86/73/105 92/73/105 87/73/105
f 85/73/106 92/73/106 86/73/106
f 115/73/107 92/73/107 83/73/107
f 84/73/108 92/73/108 85/73/108
f 83/74/109 84/75/109 85/76/109 86/77/109 87/78/109 88/79/109 89/80/109 90/81/109 91/82/109 93/83/109 94/84/109 95/85/109 96/86/109 97/87/109 98/88/109 99/89/109 100/90/109 101/91/109 102/92/109 103/93/109 104/94/109 105/95/109 106/96/109 107/97/109 108/98/109 109/99/109 110/100/109 111/101/109 112/102/109 113/103/109 114/104/109 115/105/109
f 117/73/110 119/106/110 118/107/110 116/108/110
f 119/73/111 123/106/111 122/107/111 118/108/111
f 123/73/112 121/106/112 120/107/112 122/108/112
f 121/73/113 117/106/113 116/107/113 120/108/113
f 116/73/109 118/106/109 122/107/109 120/108/109
f 121/73/114 123/106/114 119/107/114 117/108/114
