# Blender v2.75 (sub 0) OBJ File: 'Rings.blend'
# www.blender.org
mtllib SaturnRing.mtl
o Cylinder
v 0.000000 0.032388 -1.857004
v 0.362284 0.032388 -1.821323
v 0.710645 0.032388 -1.715648
v 1.031696 0.032388 -1.544043
v 1.313100 0.032388 -1.313100
v 1.544043 0.032388 -1.031696
v 1.715648 0.032388 -0.710645
v 1.821323 0.032388 -0.362284
v 1.857004 0.032388 -0.000000
v 1.821323 0.032388 0.362283
v 1.715648 0.032388 0.710645
v 1.544043 0.032388 1.031696
v 1.313100 0.032388 1.313100
v 1.031696 0.032388 1.544043
v 0.710645 0.032388 1.715649
v 0.362283 0.032388 1.821323
v -0.000001 0.032388 1.857004
v -0.362284 0.032388 1.821322
v -0.710646 0.032388 1.715648
v -1.031697 0.032388 1.544042
v -1.313101 0.032388 1.313100
v -1.544043 0.032388 1.031695
v -1.715649 0.032388 0.710643
v -1.821323 0.032388 0.362282
v -1.857004 0.032388 -0.000002
v -1.821322 0.032388 -0.362285
v -1.715648 0.032388 -0.710647
v -1.544042 0.032388 -1.031698
v -1.313099 0.032388 -1.313102
v -1.031694 0.032388 -1.544044
v -0.710642 0.032388 -1.715649
v -0.362281 0.032388 -1.821323
v 0.276115 0.024685 -1.388126
v 0.000000 0.024685 -1.415321
v 0.541620 0.024685 -1.307586
v 0.786310 0.024685 -1.176796
v 1.000783 0.024685 -1.000783
v 1.176796 0.024685 -0.786310
v 1.307586 0.024685 -0.541620
v 1.388126 0.024685 -0.276116
v 1.415321 0.024685 -0.000000
v 1.388126 0.024685 0.276115
v 1.307586 0.024685 0.541619
v 1.176796 0.024685 0.786310
v 1.000783 0.024685 1.000783
v 0.786310 0.024685 1.176796
v 0.541620 0.024685 1.307586
v 0.276115 0.024685 1.388126
v -0.000000 0.024685 1.415321
v -0.276116 0.024685 1.388125
v -0.541620 0.024685 1.307585
v -0.786311 0.024685 1.176796
v -1.000783 0.024685 1.000782
v -1.176797 0.024685 0.786309
v -1.307586 0.024685 0.541619
v -1.388126 0.024685 0.276114
v -1.415321 0.024685 -0.000002
v -1.388125 0.024685 -0.276117
v -1.307585 0.024685 -0.541621
v -1.176795 0.024685 -0.786312
v -1.000782 0.024685 -1.000784
v -0.786308 0.024685 -1.176797
v -0.541618 0.024685 -1.307587
v -0.276113 0.024685 -1.388126
vt 0.000504 0.996840
vt 0.000504 0.003160
vt 0.999496 0.003160
vt 0.999496 0.996840
vn 0.015500 0.999800 0.008300
vn -0.016800 0.999800 -0.005100
vn 0.008300 0.999800 -0.015500
vn 0.013500 0.999800 0.011100
vn -0.005100 0.999800 0.016800
vn -0.015500 0.999800 -0.008300
vn 0.011100 0.999800 -0.013500
vn 0.011100 0.999800 0.013500
vn -0.008300 0.999800 0.015500
vn -0.013500 0.999800 -0.011100
vn 0.013500 0.999800 -0.011100
vn 0.008300 0.999800 0.015500
vn -0.011100 0.999800 0.013500
vn -0.011100 0.999800 -0.013500
vn 0.015500 0.999800 -0.008300
vn 0.005100 0.999800 0.016800
vn -0.013500 0.999800 0.011100
vn -0.008300 0.999800 -0.015500
vn 0.016800 0.999800 -0.005100
vn 0.001700 0.999800 0.017400
vn -0.015500 0.999800 0.008300
vn -0.005100 0.999800 -0.016800
vn 0.017400 0.999800 -0.001700
vn -0.016800 0.999800 0.005100
vn -0.001700 0.999800 -0.017400
vn 0.017400 0.999800 0.001700
vn -0.017400 0.999800 0.001700
vn 0.001700 0.999800 -0.017400
vn 0.016800 0.999800 0.005100
vn -0.017400 0.999800 -0.001700
vn 0.005100 0.999800 -0.016800
vn -0.001700 0.999800 0.017400
usemtl Material.001
s off
f 28/1/1 27/2/1 59/3/1 60/4/1
f 11/1/2 10/2/2 42/3/2 43/4/2
f 20/1/3 19/2/3 51/3/3 52/4/3
f 29/1/4 28/2/4 60/3/4 61/4/4
f 3/1/5 2/2/5 33/3/5 35/4/5
f 12/1/6 11/2/6 43/3/6 44/4/6
f 21/1/7 20/2/7 52/3/7 53/4/7
f 30/1/8 29/2/8 61/3/8 62/4/8
f 4/1/9 3/2/9 35/3/9 36/4/9
f 13/1/10 12/2/10 44/3/10 45/4/10
f 22/1/11 21/2/11 53/3/11 54/4/11
f 31/1/12 30/2/12 62/3/12 63/4/12
f 5/1/13 4/2/13 36/3/13 37/4/13
f 14/1/14 13/2/14 45/3/14 46/4/14
f 23/1/15 22/2/15 54/3/15 55/4/15
f 32/1/16 31/2/16 63/3/16 64/4/16
f 6/1/17 5/2/17 37/3/17 38/4/17
f 15/1/18 14/2/18 46/3/18 47/4/18
f 24/1/19 23/2/19 55/3/19 56/4/19
f 1/1/20 32/2/20 64/3/20 34/4/20
f 7/1/21 6/2/21 38/3/21 39/4/21
f 16/1/22 15/2/22 47/3/22 48/4/22
f 25/1/23 24/2/23 56/3/23 57/4/23
f 8/1/24 7/2/24 39/3/24 40/4/24
f 17/1/25 16/2/25 48/3/25 49/4/25
f 26/1/26 25/2/26 57/3/26 58/4/26
f 9/1/27 8/2/27 40/3/27 41/4/27
f 18/1/28 17/2/28 49/3/28 50/4/28
f 27/1/29 26/2/29 58/3/29 59/4/29
f 10/1/30 9/2/30 41/3/30 42/4/30
f 19/1/31 18/2/31 50/3/31 51/4/31
f 2/1/32 1/2/32 34/3/32 33/4/32
