# Blender v2.77 (sub 0) OBJ File: 'PointLight.blend'
# www.blender.org
mtllib PointLight.mtl
o PointLight_Point_Pear_Straight
v 0.023914 -0.238889 -0.023965
v 0.027505 -0.224638 -0.021500
v 0.029478 -0.239088 0.010794
v 0.034482 -0.222144 0.019962
v 0.070741 -0.102170 0.009644
v 0.054438 -0.102129 -0.042200
v 0.054536 -0.105302 -0.054538
v 0.075390 -0.105328 -0.009926
v 0.148765 0.392643 -0.064568
v 0.143980 0.424003 0.007422
v 0.183898 0.313803 -0.025829
v 0.063372 -0.217964 -0.025974
v 0.070839 0.094389 -0.038932
v 0.080599 0.094457 0.000000
v -0.000945 -0.224661 -0.034252
v 0.000542 -0.217888 -0.069435
v 0.041289 -0.217964 -0.054607
v 0.123217 0.224082 -0.100892
v 0.168835 0.242710 -0.019217
v 0.147330 0.300303 -0.114355
v 0.099997 0.422270 -0.105390
v 0.018141 -0.102141 -0.067705
v 0.047853 0.094873 -0.064693
v 0.068472 0.257377 -0.163305
v 0.069458 0.325349 -0.169559
v 0.009925 -0.105327 -0.075391
v 0.010441 0.093597 -0.079311
v -0.035227 -0.102093 -0.060557
v -0.029112 -0.105328 -0.070257
v 0.018509 0.407874 -0.152937
v 0.048432 0.482457 -0.032147
v -0.046062 0.483050 -0.037126
v 0.001202 0.489895 0.000535
v -0.021372 0.238805 -0.166458
v -0.022481 0.306550 -0.183988
v 0.031940 0.456640 -0.099439
v -0.048074 -0.218382 -0.049929
v -0.046921 0.094163 -0.067425
v -0.078354 0.092519 -0.018615
v -0.154148 0.237358 -0.064301
v -0.107435 0.255493 -0.140011
v -0.053080 0.416219 -0.140634
v -0.111136 0.325246 -0.145929
v -0.035239 -0.222078 -0.016707
v -0.013241 -0.239121 -0.027946
v -0.120670 0.407829 -0.094855
v -0.069731 -0.218785 0.008479
v -0.070354 -0.102253 -0.009539
v -0.162510 0.234754 0.042387
v -0.184530 0.310653 0.021085
v -0.171805 0.312138 -0.071195
v -0.140512 0.424271 -0.031172
v -0.066831 -0.105348 -0.038406
v -0.075392 -0.105328 0.009925
v -0.049465 -0.102120 0.049619
v -0.060371 -0.105305 0.046269
v -0.033642 -0.221859 0.019401
v -0.029664 -0.239003 -0.012159
v -0.073931 0.093415 0.030469
v -0.147028 0.401895 0.058437
v -0.110225 0.451803 0.021297
v 0.067122 -0.218089 0.017313
v -0.040461 0.092947 0.070080
v -0.085071 0.234188 0.144988
v -0.159752 0.310586 0.092233
v -0.011786 0.480889 0.063696
v -0.040801 -0.218357 0.054908
v -0.112488 0.296207 0.146391
v -0.025034 -0.239015 0.022008
v 0.009019 -0.238547 0.032403
v 0.012207 -0.230132 0.030793
v -0.012076 -0.224834 0.032231
v -0.074861 0.439770 0.098436
v 0.000142 -0.217829 0.069496
v -0.000001 -0.102219 0.069734
v -0.023674 0.312772 0.184358
v -0.020696 0.410200 0.150695
v 0.009925 -0.105328 0.075391
v 0.010441 0.093597 0.079312
v -0.029112 -0.105328 0.070256
v 0.038491 0.231261 0.161389
v 0.041745 -0.217942 0.054335
v 0.074388 0.303587 0.170666
v 0.039472 0.411865 0.147321
v 0.042358 -0.102062 0.054772
v 0.046298 -0.105304 0.060354
v 0.047853 0.094872 0.064693
v 0.172786 0.315064 0.067006
v 0.127775 0.423946 0.062742
v 0.087845 0.421253 0.115373
v 0.130371 0.313571 0.130373
v 0.070839 0.094388 0.038933
v 0.149475 0.242871 0.086194
v 0.055197 0.479531 0.029180
v 0.070264 -0.105329 0.029078
v -0.099472 0.384158 0.134462
vt 0.0000 0.8752
vt 0.0149 0.8953
vt 0.0011 1.0000
vt 0.0232 1.0000
vt 0.1849 0.9794
vt 0.1853 0.8960
vt 0.1936 0.8752
vt 0.1936 0.9792
vt 0.7868 0.9352
vt 0.8236 0.9904
vt 0.6957 0.9780
vt 0.0551 0.9383
vt 0.4194 0.9200
vt 0.4158 0.9884
vt 0.0157 0.7519
vt 0.0553 0.7512
vt 0.0548 0.8534
vt 0.5920 0.8916
vt 0.6144 0.9815
vt 0.6795 0.8944
vt 0.8210 0.8736
vt 0.1849 0.7916
vt 0.4207 0.8465
vt 0.6318 0.8127
vt 0.7082 0.8126
vt 0.1936 0.7708
vt 0.4178 0.7708
vt 0.1852 0.6665
vt 0.1936 0.6875
vt 0.8058 0.7689
vt 0.9333 0.8928
vt 0.9329 0.6181
vt 0.9685 0.9684
vt 0.6091 0.7297
vt 0.6863 0.7306
vt 0.8828 0.7977
vt 0.0550 0.6279
vt 0.4165 0.6503
vt 0.4215 0.5280
vt 0.6084 0.5622
vt 0.6305 0.6457
vt 0.8157 0.6899
vt 0.7083 0.6461
vt 0.0208 0.5687
vt 0.0025 0.6955
vt 0.8037 0.6076
vt 0.0549 0.4809
vt 0.1853 0.5224
vt 0.6084 0.4593
vt 0.6895 0.4824
vt 0.6933 0.5624
vt 0.8217 0.5403
vt 0.1936 0.5830
vt 0.1936 0.4790
vt 0.1854 0.3739
vt 0.1937 0.3961
vt 0.0189 0.4126
vt 0.0004 0.5640
vt 0.4183 0.4374
vt 0.7956 0.4378
vt 0.8700 0.4650
vt 0.0547 1.0000
vt 0.4182 0.3337
vt 0.6055 0.3345
vt 0.6916 0.4167
vt 0.9251 0.2635
vt 0.0547 0.3516
vt 0.6753 0.3541
vt -0.0000 0.3855
vt -0.0000 0.2070
vt 0.0090 0.1908
vt 0.0139 0.3060
vt 0.8550 0.3540
vt 0.0553 0.2500
vt 0.1852 0.2498
vt 0.6937 0.2706
vt 0.8089 0.2713
vt 0.1936 0.2292
vt 0.4178 0.2292
vt 0.1936 0.3125
vt 0.6019 0.2121
vt 0.0213 0.0828
vt 0.0548 0.1455
vt 0.6830 0.1847
vt 0.8105 0.2083
vt 0.1854 0.1460
vt 0.1936 0.1459
vt 0.4207 0.1535
vt 0.6985 0.0583
vt 0.8281 0.0716
vt 0.8230 0.1456
vt 0.6949 0.1250
vt 0.4194 0.0800
vt 0.6187 0.0853
vt 0.9336 0.0751
vt 0.0010 0.0625
vt 0.0550 0.0404
vt 0.1853 0.0316
vt 0.4254 0.0051
vt 0.6197 0.0000
vt 0.1936 0.0623
vt 0.8228 0.0118
vt 0.1936 0.0000
vt 0.9210 0.0000
vt 0.6995 0.0000
vt 0.9457 1.0000
vt 0.9806 0.2035
vt 0.7767 0.3509
vn 0.9639 -0.2159 -0.1555
vn 0.9673 -0.2042 -0.1505
vn -0.3463 -0.9287 0.1327
vn 0.9260 0.3648 -0.0974
vn 0.9535 0.0315 -0.2998
vn 0.9386 -0.0286 -0.3439
vn 0.0700 -0.9816 -0.1776
vn 0.8051 -0.4869 -0.3386
vn 0.8940 0.2018 -0.4001
vn 0.6531 0.7092 -0.2655
vn 0.1660 -0.9778 -0.1280
vn 0.5748 0.0224 -0.8180
vn 0.7460 -0.0089 -0.6658
vn 0.5062 -0.4934 -0.7073
vn 0.6197 -0.3224 -0.7156
vn 0.5582 -0.0840 -0.8255
vn 0.3971 -0.0262 -0.9174
vn -0.2852 -0.7385 0.6110
vn 0.0449 -0.9389 0.3413
vn 0.4033 0.4134 -0.8164
vn 0.0166 0.9799 -0.1990
vn 0.1313 -0.4888 -0.8624
vn 0.0852 -0.2483 -0.9649
vn 0.0989 0.2548 -0.9619
vn 0.0250 0.9313 -0.3634
vn -0.0668 -0.9792 -0.1913
vn -0.1326 0.0350 -0.9905
vn -0.1739 -0.0102 -0.9847
vn -0.6917 -0.5067 -0.5146
vn -0.1214 0.3354 -0.9342
vn -0.0285 0.7423 -0.6695
vn -0.1406 0.8361 -0.5303
vn -0.3716 -0.0437 -0.9274
vn -0.3415 -0.4892 -0.8026
vn -0.3276 -0.2417 -0.9134
vn -0.3327 0.2650 -0.9051
vn -0.4555 -0.0009 -0.8902
vn -0.5486 0.3930 -0.7379
vn -0.4167 0.7763 -0.4730
vn -0.1363 -0.9890 -0.0574
vn -0.8231 0.0392 -0.5666
vn -0.9564 -0.2719 -0.1069
vn -0.7996 -0.2396 -0.5507
vn -0.5091 0.7816 -0.3604
vn -0.8408 0.0052 -0.5413
vn -0.8564 0.3682 -0.3619
vn 0.8780 -0.4527 0.1557
vn -0.8726 -0.4819 -0.0801
vn 0.2733 -0.9566 -0.1012
vn -0.9523 -0.3019 0.0440
vn -0.9960 -0.0020 0.0898
vn -0.9282 0.3712 0.0252
vn -0.7618 0.6394 0.1043
vn 0.1555 -0.9878 0.0079
vn -0.9420 0.0464 0.3325
vn -0.6895 -0.4891 0.5342
vn -0.9292 -0.1788 0.3234
vn -0.9154 0.2456 0.3190
vn -0.3332 0.9334 0.1333
vn -0.1075 -0.9913 0.0761
vn -0.7638 -0.0008 0.6454
vn -0.7505 -0.3440 0.5642
vn -0.1669 -0.2448 0.9551
vn -0.5862 0.7153 0.3803
vn -0.3356 -0.0024 0.9420
vn -0.3583 -0.1791 0.9163
vn -0.1675 0.7735 0.6113
vn -0.1576 -0.0136 0.9874
vn -0.0598 -0.9773 0.2033
vn 0.0763 -0.8113 -0.5797
vn -0.1328 -0.4921 0.8603
vn 0.0710 -0.9883 0.1353
vn 0.1190 -0.1842 0.9757
vn 0.1572 0.2563 0.9537
vn 0.0440 0.3251 0.9447
vn 0.0139 0.7753 0.6314
vn 0.1747 0.5859 0.7913
vn -0.1340 -0.9244 -0.3572
vn 0.3424 -0.0015 0.9396
vn 0.3732 -0.0211 0.9275
vn 0.7563 0.3546 0.5497
vn 0.4751 0.3291 0.8161
vn 0.7458 -0.0202 0.6659
vn 0.5291 -0.4663 0.7089
vn 0.5915 -0.3063 0.7459
vn 0.2600 0.8428 0.4713
vn 0.5171 -0.5204 0.6796
vn 0.1302 -0.9871 0.0932
vn 0.8465 -0.0065 0.5324
vn 0.8516 -0.4952 0.1721
vn 0.9699 -0.0148 0.2431
vn 0.8886 0.3775 0.2607
vn -0.8305 -0.5462 -0.1092
vn 0.5406 0.8388 0.0652
vn 0.9496 -0.2602 0.1748
vn 0.9735 -0.1952 0.1192
vn 0.9956 -0.0368 -0.0864
vn 0.8287 -0.5200 -0.2068
vn 0.1742 0.9843 0.0278
vn 0.8520 -0.3399 -0.3983
vn 0.9122 -0.2251 -0.3425
vn 0.5765 0.7820 -0.2368
vn 0.7916 -0.0245 -0.6105
vn 0.6292 -0.5270 -0.5713
vn 0.7151 0.3231 -0.6198
vn -0.1712 -0.9545 0.2442
vn 0.6139 0.2921 -0.7334
vn 0.3820 0.8276 -0.4112
vn 0.4084 0.0548 -0.9112
vn 0.3416 -0.0379 -0.9391
vn 0.3261 -0.5203 -0.7892
vn 0.2802 0.6733 -0.6842
vn 0.0971 -0.4661 -0.8794
vn 0.1728 -0.0927 -0.9806
vn -0.1765 -0.5347 -0.8264
vn -0.1095 -0.9917 -0.0680
vn -0.4101 -0.0987 -0.9067
vn 0.4408 -0.7306 0.5215
vn -0.6445 -0.0467 -0.7632
vn -0.6399 -0.3889 -0.6628
vn 0.1896 -0.9735 0.1275
vn -0.7647 -0.0947 -0.6374
vn -0.7704 0.2687 -0.5782
vn -0.9359 -0.0587 -0.3474
vn -0.9839 -0.0399 -0.1743
vn -0.9432 0.3079 -0.1251
vn -0.5297 0.8376 -0.1337
vn -0.8945 -0.4304 0.1211
vn -0.0878 -0.9961 0.0099
vn -0.8410 -0.5343 0.0856
vn -0.9237 -0.0327 0.3818
vn -0.2158 0.9719 0.0942
vn -0.5202 -0.1328 0.8436
vn -0.8479 -0.0391 0.5287
vn -0.7122 0.1968 0.6738
vn -0.7707 0.3129 0.5551
vn -0.6047 0.6039 0.5192
vn -0.3909 0.8651 0.3142
vn 0.3804 -0.7803 -0.4964
vn -0.6084 -0.0341 0.7929
vn -0.1726 -0.9830 0.0622
vn -0.3766 0.0141 0.9263
vn 0.0985 -0.9640 -0.2470
vn -0.4150 0.1823 0.8913
vn -0.2916 0.3203 0.9013
vn -0.3488 0.6134 0.7086
vn -0.1311 -0.3603 0.9236
vn 0.3331 -0.0053 0.9429
vn 0.3238 -0.5323 0.7822
vn 0.2031 0.8126 0.5463
vn 0.7171 -0.1411 0.6825
vn 0.5476 -0.3682 0.7514
vn 0.5168 0.3150 0.7961
vn 0.1029 0.9816 0.1611
vn 0.8248 0.0117 0.5653
vn -0.2598 -0.9521 -0.1611
vn -0.3538 -0.8954 -0.2704
vn 0.7933 -0.0323 0.6079
vn 0.6332 -0.5183 0.5748
vn 0.8263 -0.1206 0.5502
vn 0.4455 0.8109 0.3795
vn 0.9910 -0.0323 0.1302
vn 0.9447 0.3093 0.1089
usemtl PointLight
s 1
f 1/1/1 2/2/1 3/3/1
f 2/2/2 4/4/2 3/3/2
f 5/5/3 6/6/3 7/7/3 8/8/3
f 9/9/4 10/10/4 11/11/4
f 6/6/5 5/5/5 12/12/5
f 8/8/6 7/7/6 13/13/6 14/14/6
f 15/15/7 16/16/7 17/17/7 2/2/7
f 13/13/8 18/18/8 19/19/8
f 20/20/9 9/9/9 11/11/9
f 21/21/10 10/10/10 9/9/10
f 2/2/11 17/17/11 12/12/11
f 17/17/12 22/22/12 6/6/12
f 23/23/13 13/13/13 7/7/13
f 23/23/14 24/24/14 18/18/14
f 24/24/15 20/20/15 18/18/15
f 24/24/16 25/25/16 20/20/16
f 26/26/17 27/27/17 23/23/17 7/7/17
f 26/26/18 7/7/18 22/22/18
f 22/22/19 28/28/19 29/29/19 26/26/19
f 30/30/20 21/21/20 25/25/20
f 31/31/21 32/32/21 33/33/21
f 34/34/22 24/24/22 27/27/22
f 34/34/23 35/35/23 24/24/23
f 35/35/24 30/30/24 25/25/24
f 32/32/25 31/31/25 36/36/25
f 15/15/26 37/37/26 16/16/26
f 28/28/27 22/22/27 16/16/27
f 26/26/28 29/29/28 38/38/28 27/27/28
f 38/38/29 39/39/29 40/40/29 41/41/29
f 42/42/30 30/30/30 35/35/30
f 42/42/31 36/36/31 30/30/31
f 42/42/32 32/32/32 36/36/32
f 37/37/33 28/28/33 16/16/33
f 41/41/34 34/34/34 38/38/34
f 41/41/35 35/35/35 34/34/35
f 43/43/36 42/42/36 35/35/36
f 44/44/37 15/15/37 45/45/37
f 43/43/38 46/46/38 42/42/38
f 46/46/39 32/32/39 42/42/39
f 47/47/40 37/37/40 44/44/40
f 37/37/41 48/48/41 28/28/41
f 40/40/42 49/49/42 50/50/42 51/51/42
f 40/40/43 51/51/43 41/41/43
f 52/52/44 32/32/44 46/46/44
f 39/39/45 38/38/45 53/53/45
f 51/51/46 52/52/46 46/46/46
f 54/54/47 53/53/47 48/48/47
f 39/39/48 49/49/48 40/40/48
f 48/48/49 55/55/49 56/56/49 54/54/49
f 57/57/50 44/44/50 58/58/50
f 59/59/51 39/39/51 54/54/51
f 60/60/52 52/52/52 50/50/52
f 60/60/53 61/61/53 52/52/53
f 4/4/54 2/2/54 12/12/54 62/62/54
f 55/55/55 48/48/55 47/47/55
f 63/63/56 64/64/56 49/49/56 59/59/56
f 65/65/57 50/50/57 49/49/57
f 65/65/58 60/60/58 50/50/58
f 66/66/59 32/32/59 61/61/59
f 57/57/60 67/67/60 47/47/60
f 56/56/61 63/63/61 59/59/61
f 49/49/62 64/64/62 68/68/62 65/65/62
f 69/69/63 70/70/63 71/71/63 72/72/63
f 73/73/64 61/61/64 60/60/64
f 74/74/65 75/75/65 67/67/65
f 64/64/66 76/76/66 68/68/66
f 77/77/67 66/66/67 73/73/67
f 78/78/68 79/79/68 63/63/68 80/80/68
f 74/74/69 67/67/69 72/72/69
f 78/78/70 80/80/70 75/75/70
f 63/63/71 79/79/71 81/81/71 64/64/71
f 4/82/72 82/83/72 74/74/72 72/72/72
f 83/84/73 76/76/73 81/81/73
f 83/84/74 84/85/74 76/76/74
f 84/85/75 77/77/75 76/76/75
f 84/85/76 66/66/76 77/77/76
f 71/71/77 4/82/77 72/72/77
f 75/75/78 85/86/78 86/87/78 78/78/78
f 82/83/79 75/75/79 74/74/79
f 78/78/80 86/87/80 87/88/80 79/79/80
f 88/89/81 89/90/81 90/91/81 91/92/81
f 83/84/82 90/91/82 84/85/82
f 86/87/83 92/93/83 87/88/83
f 93/94/84 81/81/84 87/88/84
f 93/94/85 91/92/85 83/84/85
f 94/95/86 66/66/86 90/91/86
f 3/96/87 4/82/87 71/71/87
f 62/97/88 82/83/88 4/82/88
f 5/98/89 85/86/89 82/83/89
f 92/93/90 14/99/90 19/100/90 93/94/90
f 14/99/91 92/93/91 95/101/91
f 10/102/92 89/90/92 88/89/92
f 8/103/93 95/101/93 5/98/93
f 89/90/94 10/102/94 31/104/94 94/95/94
f 19/100/95 88/89/95 93/94/95
f 19/100/96 11/105/96 88/89/96
f 12/12/97 5/5/97 62/62/97
f 13/13/98 19/19/98 14/14/98
f 31/31/99 33/33/99 94/106/99
f 18/18/100 20/20/100 19/19/100
f 19/19/101 20/20/101 11/11/101
f 21/21/102 31/31/102 10/10/102
f 17/17/103 6/6/103 12/12/103
f 23/23/104 18/18/104 13/13/104
f 20/20/105 21/21/105 9/9/105
f 22/22/106 7/7/106 6/6/106
f 25/25/107 21/21/107 20/20/107
f 21/21/108 36/36/108 31/31/108
f 1/1/109 15/15/109 2/2/109
f 17/17/110 16/16/110 22/22/110
f 23/23/111 27/27/111 24/24/111
f 21/21/112 30/30/112 36/36/112
f 45/45/113 15/15/113 1/1/113
f 24/24/114 35/35/114 25/25/114
f 38/38/115 34/34/115 27/27/115
f 15/15/116 44/44/116 37/37/116
f 41/41/117 43/43/117 35/35/117
f 28/28/118 53/53/118 29/29/118
f 53/53/119 38/38/119 29/29/119
f 58/58/120 44/44/120 45/45/120
f 48/48/121 53/53/121 28/28/121
f 41/41/122 51/51/122 43/43/122
f 43/43/123 51/51/123 46/46/123
f 47/47/124 48/48/124 37/37/124
f 54/54/125 39/39/125 53/53/125
f 51/51/126 50/50/126 52/52/126
f 61/61/127 32/32/127 52/52/127
f 69/69/128 57/57/128 58/58/128
f 44/44/129 57/57/129 47/47/129
f 59/59/130 49/49/130 39/39/130
f 54/54/131 56/56/131 59/59/131
f 32/32/132 66/66/132 33/107/132
f 69/69/133 72/72/133 57/57/133
f 47/47/134 67/67/134 55/55/134
f 68/68/135 96/108/135 65/65/135
f 65/65/136 96/108/136 60/60/136
f 96/108/137 73/73/137 60/60/137
f 73/73/138 66/66/138 61/61/138
f 55/55/139 80/80/139 56/56/139
f 56/56/140 80/80/140 63/63/140
f 72/72/141 67/67/141 57/57/141
f 67/67/142 75/75/142 55/55/142
f 75/75/143 80/80/143 55/55/143
f 68/68/144 76/76/144 96/108/144
f 76/76/145 77/77/145 96/108/145
f 96/108/146 77/77/146 73/73/146
f 64/64/147 81/81/147 76/76/147
f 82/83/148 85/86/148 75/75/148
f 87/88/149 81/81/149 79/79/149
f 84/85/150 90/91/150 66/66/150
f 3/96/151 71/71/151 70/70/151
f 81/81/152 93/94/152 83/84/152
f 83/84/153 91/92/153 90/91/153
f 94/95/154 33/107/154 66/66/154
f 62/97/155 5/98/155 82/83/155
f 5/98/156 95/101/156 85/86/156
f 85/86/157 95/101/157 86/87/157
f 95/101/158 92/93/158 86/87/158
f 87/88/159 92/93/159 93/94/159
f 93/94/160 88/89/160 91/92/160
f 90/91/161 89/90/161 94/95/161
f 8/103/162 14/99/162 95/101/162
f 88/89/163 11/105/163 10/102/163
